<svg width="100" height="100" viewBox="0 0 100 100" fill="none" xmlns="http://www.w3.org/2000/svg">
<rect width="100" height="100" rx="20" fill="#E0F7FA"/>
<path d="M50 20C38.9543 20 30 28.9543 30 40V60C30 71.0457 38.9543 80 50 80C61.0457 80 70 71.0457 70 60V40C70 28.9543 61.0457 20 50 20Z" fill="#008080"/>
<path d="M50 30C44.4772 30 40 34.4772 40 40V60C40 65.5228 44.4772 70 50 70C55.5228 70 60 65.5228 60 60V40C60 34.4772 55.5228 30 50 30Z" fill="#FFFFFF"/>
<circle cx="50" cy="50" r="5" fill="#008080"/>
</svg>
